<svg xmlns="http://www.w3.org/2000/svg" xmlns:xlink="http://www.w3.org/1999/xlink" viewBox="0 0 738.09 320.29"><defs><style>.cls-1{isolation:isolate;}.cls-2{mix-blend-mode:multiply;}.cls-3,.cls-4,.cls-6{font-size:146.2px;font-family:SuperMarioGalaxy, Super Mario 256;}.cls-4,.cls-6{fill:none;stroke-width:6.5px;}.cls-4{stroke:#000;}.cls-5{fill:url(#New_Gradient_Swatch);}.cls-6{stroke:#4a4a4a;}.cls-7{fill:url(#New_Gradient_Swatch-2);}.cls-8{fill:url(#New_Gradient_Swatch-3);}.cls-9{fill:url(#New_Gradient_Swatch-4);}.cls-10{fill:url(#New_Gradient_Swatch-5);}.cls-11{fill:url(#New_Gradient_Swatch-6);}.cls-12{fill:url(#New_Gradient_Swatch-7);}.cls-13{fill:url(#New_Gradient_Swatch-8);}.cls-14{fill:url(#New_Gradient_Swatch-9);}.cls-15{fill:url(#New_Gradient_Swatch-10);}.cls-16{fill:url(#New_Gradient_Swatch-11);}.cls-17{fill:url(#New_Gradient_Swatch-12);}.cls-18{fill:url(#New_Gradient_Swatch-13);}.cls-19{fill:url(#New_Gradient_Swatch-14);}.cls-20{fill:url(#New_Gradient_Swatch-15);}</style><linearGradient id="New_Gradient_Swatch" x1="662.98" y1="179.82" x2="662.98" y2="288.75" gradientTransform="translate(-30.59 105.01) rotate(-10.58)" gradientUnits="userSpaceOnUse"><stop offset="0" stop-color="#ffe180"/><stop offset="1" stop-color="#ff7f00"/></linearGradient><linearGradient id="New_Gradient_Swatch-2" x1="572.89" y1="164.59" x2="572.89" y2="273.21" gradientTransform="translate(-1.89 -2.62) rotate(-0.27)" xlink:href="#New_Gradient_Swatch"/><linearGradient id="New_Gradient_Swatch-3" x1="488.63" y1="171.58" x2="488.63" y2="280.35" gradientTransform="translate(-15.46 32.13) rotate(-4.39)" xlink:href="#New_Gradient_Swatch"/><linearGradient id="New_Gradient_Swatch-4" x1="414.79" y1="164.44" x2="414.79" y2="272.92" gradientTransform="matrix(0.99, 0.12, -0.12, 0.99, 30.05, -44.87)" xlink:href="#New_Gradient_Swatch"/><linearGradient id="New_Gradient_Swatch-5" x1="332.2" y1="167.37" x2="332.2" y2="276.15" gradientTransform="matrix(1, -0.07, 0.07, 1, -14.87, 24.57)" xlink:href="#New_Gradient_Swatch"/><linearGradient id="New_Gradient_Swatch-6" x1="240.99" y1="164.73" x2="240.99" y2="272.92" gradientTransform="translate(11.21 -5.19) rotate(2.82)" xlink:href="#New_Gradient_Swatch"/><linearGradient id="New_Gradient_Swatch-7" x1="155.58" y1="166.44" x2="155.58" y2="274.77" gradientTransform="matrix(1, -0.04, 0.04, 1, -7.79, 13.91)" xlink:href="#New_Gradient_Swatch"/><linearGradient id="New_Gradient_Swatch-8" x1="65.28" y1="167.69" x2="65.28" y2="276.47" gradientTransform="translate(-28.46 20.45) rotate(-7.41)" xlink:href="#New_Gradient_Swatch"/><linearGradient id="New_Gradient_Swatch-9" x1="586.04" y1="29.72" x2="586.04" y2="138.34" gradientTransform="translate(-0.11 41.21) rotate(-3.98)" xlink:href="#New_Gradient_Swatch"/><linearGradient id="New_Gradient_Swatch-10" x1="500.75" y1="32.93" x2="500.75" y2="140.97" gradientTransform="translate(-8.46 18.67) rotate(-2.34)" xlink:href="#New_Gradient_Swatch"/><linearGradient id="New_Gradient_Swatch-11" x1="393.48" y1="27.59" x2="393.48" y2="136.07" gradientTransform="translate(39.53 -57.15) rotate(8.99)" xlink:href="#New_Gradient_Swatch"/><linearGradient id="New_Gradient_Swatch-12" x1="340.02" y1="29.2" x2="340.02" y2="137.54" gradientTransform="translate(-7.51 11.06) rotate(-2.02)" xlink:href="#New_Gradient_Swatch"/><linearGradient id="New_Gradient_Swatch-13" x1="238.32" y1="27.07" x2="238.32" y2="135.41" gradientTransform="translate(11.62 2.56) rotate(-0.38)" xlink:href="#New_Gradient_Swatch"/><linearGradient id="New_Gradient_Swatch-14" x1="154.3" y1="27.35" x2="154.3" y2="135.83" gradientTransform="translate(9 -14.35) rotate(5.7)" xlink:href="#New_Gradient_Swatch"/><linearGradient id="New_Gradient_Swatch-15" x1="74.14" y1="28.65" x2="74.14" y2="137.42" gradientTransform="translate(-20.53 6.45) rotate(-5.36)" xlink:href="#New_Gradient_Swatch"/></defs><title>current_projects</title><g class="cls-1"><g id="Layer_1" data-name="Layer 1"><g class="cls-2"><text class="cls-3" transform="translate(621.99 282.01) rotate(-10.58)">S</text><path d="M697,209l-24.3-9.89L668.51,207l44.12,21.21-12.2,39-46.13,8.61-37-19.57,9.57-26,30.66,10.49,3-7.25-45.18-16.55,30.47-50.31,34.64-6.47,30.82,22.5Z"/><text class="cls-4" transform="translate(623.72 284.17) rotate(-10.58)">S</text><text class="cls-4" transform="translate(621.99 282.01) rotate(-10.58)">S</text></g><text class="cls-3" transform="translate(621.99 277.01) rotate(-10.58)">S</text><path class="cls-5" d="M697,204l-24.3-9.89L668.51,202l44.12,21.21-12.2,39-46.13,8.61-37-19.57,9.57-26,30.66,10.49,3-7.25-45.18-16.55,30.47-50.31,34.64-6.47,30.82,22.5Z"/><g class="cls-2"><text class="cls-4" transform="translate(623.72 279.17) rotate(-10.58)">S</text></g><text class="cls-6" transform="translate(621.99 277.01) rotate(-10.58)">S</text><g class="cls-2"><text class="cls-3" transform="translate(518.27 273.02) rotate(-0.27)">T</text><path d="M625.8,165.92l.21,43.86L589.44,204l10.42,68.81-52.34.25,7.56-68.9-37.14-1.72-.18-37.87Z"/><text class="cls-4" transform="translate(520.01 275.18) rotate(-0.27)">T</text><text class="cls-4" transform="translate(518.27 273.02) rotate(-0.27)">T</text></g><text class="cls-3" transform="translate(518.27 268.02) rotate(-0.27)">T</text><path class="cls-7" d="M625.8,160.92l.21,43.86L589.44,199l10.42,68.81-52.34.25,7.56-68.9-37.14-1.72-.18-37.87Z"/><g class="cls-2"><text class="cls-4" transform="translate(520.01 270.18) rotate(-0.27)">T</text></g><text class="cls-6" transform="translate(518.27 268.02) rotate(-0.27)">T</text><g class="cls-2"><text class="cls-3" transform="translate(450.8 282.49) rotate(-4.39)">C</text><path d="M524.74,170.35l1.36,38.75-27.18-10.23-22.07,12.4.88,24.86,21.17,12.16,28.4-17.73,13,39.91L482.58,280,452.24,257.3l-10.86-30.69,10.53-34.68,32.4-21.11Z"/><text class="cls-4" transform="translate(452.53 284.65) rotate(-4.39)">C</text><text class="cls-4" transform="translate(450.8 282.49) rotate(-4.39)">C</text></g><text class="cls-3" transform="translate(450.8 277.49) rotate(-4.39)">C</text><path class="cls-8" d="M524.74,165.35l1.36,38.75-27.18-10.23-22.07,12.4.88,24.86,21.17,12.16,28.4-17.73,13,39.91L482.58,275,452.24,252.3l-10.86-30.69,10.53-34.68,32.4-21.11Z"/><g class="cls-2"><text class="cls-4" transform="translate(452.53 279.65) rotate(-4.39)">C</text></g><text class="cls-6" transform="translate(450.8 277.49) rotate(-4.39)">C</text><g class="cls-2"><text class="cls-3" transform="translate(364.88 276.26) rotate(6.94)">E</text><path d="M457,177.75l-9.61,29.32-35.63,1.11-1.34,7.35L441,221.61l-4.26,22.9-27.87-.89,1.51,8.14,33.49,4.37,8.82,30.38-80-9.73.6-70.33,12.5-37.36Z"/><text class="cls-4" transform="translate(366.62 278.43) rotate(6.94)">E</text><text class="cls-4" transform="translate(364.88 276.26) rotate(6.94)">E</text></g><text class="cls-3" transform="translate(364.88 271.26) rotate(6.94)">E</text><path class="cls-9" d="M457,172.75l-9.61,29.32-35.63,1.11-1.34,7.35L441,216.61l-4.26,22.9-27.87-.89,1.51,8.14,33.49,4.37,8.82,30.38-80-9.73.6-70.33,12.5-37.36Z"/><g class="cls-2"><text class="cls-4" transform="translate(366.62 273.43) rotate(6.94)">E</text></g><text class="cls-6" transform="translate(364.88 271.26) rotate(6.94)">E</text><g class="cls-2"><text class="cls-3" transform="translate(288.13 284.86) rotate(-4.07)">J</text><path d="M312.34,174.09l64.23-1.64,2,28.58-28.82,4.84,14.39,49.84-13.67,20-28.11,6.69-31.65,2.25-1.26-32.16L324,247.57l-6.76-39.39-34.61-.32-2.19-30.77Z"/><text class="cls-4" transform="translate(289.86 287.03) rotate(-4.07)">J</text><text class="cls-4" transform="translate(288.13 284.86) rotate(-4.07)">J</text></g><text class="cls-3" transform="translate(288.13 279.86) rotate(-4.07)">J</text><path class="cls-10" d="M312.34,169.09l64.23-1.64,2,28.58-28.82,4.84,14.39,49.84-13.67,20-28.11,6.69-31.65,2.25-1.26-32.16L324,242.57l-6.76-39.39-34.61-.32-2.19-30.77Z"/><g class="cls-2"><text class="cls-4" transform="translate(289.86 282.03) rotate(-4.07)">J</text></g><text class="cls-6" transform="translate(288.13 279.86) rotate(-4.07)">J</text><g class="cls-2"><text class="cls-3" transform="translate(186.77 282.01) rotate(2.82)">O</text><path d="M298.16,219.87l-11.62,51.68-58.42,12.2-44-42.86,9.12-45.37,35.39-20.07,39.65,3.27Zm-71.07,10.4,12.43,9.25,13.83-4.29.07-16.25-18.05-5Z"/><text class="cls-4" transform="translate(188.51 284.18) rotate(2.82)">O</text><text class="cls-4" transform="translate(186.77 282.01) rotate(2.82)">O</text></g><text class="cls-3" transform="translate(186.77 277.01) rotate(2.82)">O</text><path class="cls-11" d="M298.16,214.87l-11.62,51.68-58.42,12.2-44-42.86,9.12-45.37,35.39-20.07,39.65,3.27Zm-71.07,10.4,12.43,9.25,13.83-4.29.07-16.25-18.05-5Z"/><g class="cls-2"><text class="cls-4" transform="translate(188.51 279.18) rotate(2.82)">O</text></g><text class="cls-6" transform="translate(186.77 277.01) rotate(2.82)">O</text><g class="cls-2"><text class="cls-3" transform="translate(106.51 289.5) rotate(-2.05)">R</text><path d="M191,198.11l3.7,34-14.59,17.49L208,272.41,176.8,287.28l-34.18-27.16,6,28-33.6,1.2L102.81,186.2l60.47-6.84ZM140.7,231.22l9,.85,8.45-13.18-17.27-8.45Z"/><text class="cls-4" transform="translate(108.24 291.66) rotate(-2.05)">R</text><text class="cls-4" transform="translate(106.51 289.5) rotate(-2.05)">R</text></g><text class="cls-3" transform="translate(106.51 284.5) rotate(-2.05)">R</text><path class="cls-12" d="M191,193.11l3.7,34-14.59,17.49L208,267.41,176.8,282.28l-34.18-27.16,6,28-33.6,1.2L102.81,181.2l60.47-6.84ZM140.7,226.22l9,.85,8.45-13.18-17.27-8.45Z"/><g class="cls-2"><text class="cls-4" transform="translate(108.24 286.66) rotate(-2.05)">R</text></g><text class="cls-6" transform="translate(106.51 284.5) rotate(-2.05)">R</text><g class="cls-2"><text class="cls-3" transform="translate(26.02 296.56) rotate(-7.41)">P</text><path d="M104,195.17l7.61,42.65L89,266.11l-31.78,6.2,2.66,20.44-33.78,4.39L17.43,188.58l58.72-7.63ZM57.36,234.84l9.74.06L77.41,219l-21.32-1.8Z"/><text class="cls-4" transform="translate(27.75 298.73) rotate(-7.41)">P</text><text class="cls-4" transform="translate(26.02 296.56) rotate(-7.41)">P</text></g><text class="cls-3" transform="translate(26.02 291.56) rotate(-7.41)">P</text><path class="cls-13" d="M104,190.17l7.61,42.65L89,261.11l-31.78,6.2,2.66,20.44-33.78,4.39L17.43,183.58l58.72-7.63ZM57.36,229.84l9.74.06L77.41,214l-21.32-1.8Z"/><g class="cls-2"><text class="cls-4" transform="translate(27.75 293.73) rotate(-7.41)">P</text></g><text class="cls-6" transform="translate(26.02 291.56) rotate(-7.41)">P</text></g><g id="Layer_1_copy" data-name="Layer 1 copy"><g class="cls-2"><text class="cls-3" transform="translate(540.22 147.16) rotate(-3.98)">T</text><path d="M640.6,33.33l3,43.76-36.88-3.44,14.85,68-52.21,3.63L572.49,76l-37.18.68-2.63-37.77Z"/><text class="cls-4" transform="translate(541.95 149.32) rotate(-3.98)">T</text><text class="cls-4" transform="translate(540.22 147.16) rotate(-3.98)">T</text></g><text class="cls-3" transform="translate(540.22 142.16) rotate(-3.98)">T</text><path class="cls-14" d="M640.6,28.33l3,43.76-36.88-3.44,14.85,68-52.21,3.63L572.49,71l-37.18.68-2.63-37.77Z"/><g class="cls-2"><text class="cls-4" transform="translate(541.95 144.32) rotate(-3.98)">T</text></g><text class="cls-6" transform="translate(540.22 142.16) rotate(-3.98)">T</text><g class="cls-2"><text class="cls-3" transform="matrix(1, -0.04, 0.04, 1, 448.81, 146.48)">N</text><path d="M463.8,37.29l22.06-.9,22,33,.37-34,34.11,3.87-3,102.84-28.12-.6-23-32.13-4.85,35.17-34.68,0Z"/><text class="cls-4" transform="matrix(1, -0.04, 0.04, 1, 450.54, 148.64)">N</text><text class="cls-4" transform="matrix(1, -0.04, 0.04, 1, 448.81, 146.48)">N</text></g><text class="cls-3" transform="matrix(1, -0.04, 0.04, 1, 448.81, 141.48)">N</text><path class="cls-15" d="M463.8,32.29l22.06-.9,22,33,.37-34,34.11,3.87-3,102.84-28.12-.6-23-32.13-4.85,35.17-34.68,0Z"/><g class="cls-2"><text class="cls-4" transform="matrix(1, -0.04, 0.04, 1, 450.54, 143.64)">N</text></g><text class="cls-6" transform="matrix(1, -0.04, 0.04, 1, 448.81, 141.48)">N</text><g class="cls-2"><text class="cls-3" transform="translate(363.17 137.24) rotate(8.99)">E</text><path d="M458.74,42.08,448.09,71l-35.65-.16-1.6,7.3,30.39,7.17-5.08,22.73-27.83-1.88,1.22,8.19,33.31,5.56,7.73,30.68L371,138l3.12-70.26L388,30.89Z"/><text class="cls-4" transform="translate(364.9 139.4) rotate(8.99)">E</text><text class="cls-4" transform="translate(363.17 137.24) rotate(8.99)">E</text></g><text class="cls-3" transform="translate(363.17 132.24) rotate(8.99)">E</text><path class="cls-16" d="M458.74,37.08,448.09,66l-35.65-.16-1.6,7.3,30.39,7.17-5.08,22.73-27.83-1.88,1.22,8.19,33.31,5.56,7.73,30.68L371,133l3.12-70.26L388,25.89Z"/><g class="cls-2"><text class="cls-4" transform="translate(364.9 134.4) rotate(8.99)">E</text></g><text class="cls-6" transform="translate(363.17 132.24) rotate(8.99)">E</text><g class="cls-2"><text class="cls-3" transform="translate(286.16 143.02) rotate(-2.02)">R</text><path d="M370.71,51.67l3.69,34-14.6,17.49L387.67,126l-31.22,14.85-34.17-27.17,6,28-33.61,1.19L282.51,39.72,343,32.9ZM320.39,84.76l9,.85,8.46-13.17L320.53,64Z"/><text class="cls-4" transform="translate(287.9 145.19) rotate(-2.02)">R</text><text class="cls-4" transform="translate(286.16 143.02) rotate(-2.02)">R</text></g><text class="cls-3" transform="translate(286.16 138.02) rotate(-2.02)">R</text><path class="cls-17" d="M370.71,46.67l3.69,34L359.8,98.11,387.67,121l-31.22,14.85-34.17-27.17,6,28-33.61,1.19L282.51,34.72,343,27.9ZM320.39,79.76l9,.85,8.46-13.17L320.53,59Z"/><g class="cls-2"><text class="cls-4" transform="translate(287.9 140.19) rotate(-2.02)">R</text></g><text class="cls-6" transform="translate(286.16 138.02) rotate(-2.02)">R</text><g class="cls-2"><text class="cls-3" transform="translate(199.8 141.44) rotate(-0.38)">R</text><path d="M286.94,52.56l2.71,34-15.09,17.06,27.2,23.65-31.63,14-33.37-28.14,5.16,28.18-33.63.22L199.12,38.08,259.77,33ZM235.69,84.18l8.92,1.11,8.83-12.92-17-9Z"/><text class="cls-4" transform="translate(201.54 143.61) rotate(-0.38)">R</text><text class="cls-4" transform="translate(199.8 141.44) rotate(-0.38)">R</text></g><text class="cls-3" transform="translate(199.8 136.44) rotate(-0.38)">R</text><path class="cls-18" d="M286.94,47.56l2.71,34L274.56,98.67l27.2,23.65-31.63,14-33.37-28.14,5.16,28.18-33.63.22L199.12,33.08,259.77,28ZM235.69,79.18l8.92,1.11,8.83-12.92-17-9Z"/><g class="cls-2"><text class="cls-4" transform="translate(201.54 138.61) rotate(-0.38)">R</text></g><text class="cls-6" transform="translate(199.8 136.44) rotate(-0.38)">R</text><g class="cls-2"><text class="cls-3" transform="translate(99.27 135.74) rotate(5.7)">U</text><path d="M155.68,32.78,146.17,106l19.49-11.28-.14-53.06,44.66,4.46-7.05,70.7-29,26.79-54.85-5.47-18.77-28.32,8.16-81.76Z"/><text class="cls-4" transform="translate(101 137.9) rotate(5.7)">U</text><text class="cls-4" transform="translate(99.27 135.74) rotate(5.7)">U</text></g><text class="cls-3" transform="translate(99.27 130.74) rotate(5.7)">U</text><path class="cls-19" d="M155.68,27.78,146.17,101l19.49-11.28-.14-53.06,44.66,4.46-7.05,70.7-29,26.79-54.85-5.47-18.77-28.32,8.16-81.76Z"/><g class="cls-2"><text class="cls-4" transform="translate(101 132.9) rotate(5.7)">U</text></g><text class="cls-6" transform="translate(99.27 130.74) rotate(5.7)">U</text><g class="cls-2"><text class="cls-3" transform="translate(23.76 145.32) rotate(-5.36)">C</text><path d="M95.8,32l2,38.72L70.47,60.91,48.61,73.68l1.3,24.84,21.37,11.8,28.1-18.2,13.71,39.68-57.6,10.54L24.77,120.12,13.39,89.61l9.95-34.85,32-21.65Z"/><text class="cls-4" transform="translate(25.49 147.49) rotate(-5.36)">C</text><text class="cls-4" transform="translate(23.76 145.32) rotate(-5.36)">C</text></g><text class="cls-3" transform="translate(23.76 140.32) rotate(-5.36)">C</text><path class="cls-20" d="M95.8,27l2,38.72L70.47,55.91,48.61,68.68l1.3,24.84,21.37,11.8,28.1-18.2,13.71,39.68-57.6,10.54L24.77,115.12,13.39,84.61l9.95-34.85,32-21.65Z"/><g class="cls-2"><text class="cls-4" transform="translate(25.49 142.49) rotate(-5.36)">C</text></g><text class="cls-6" transform="translate(23.76 140.32) rotate(-5.36)">C</text></g></g></svg>