<svg xmlns="http://www.w3.org/2000/svg" xmlns:xlink="http://www.w3.org/1999/xlink" viewBox="0 0 712.65 176.7"><defs><style>.cls-1{isolation:isolate;}.cls-2{mix-blend-mode:multiply;}.cls-3,.cls-4,.cls-6{font-size:146.2px;font-family:SuperMarioGalaxy, Super Mario 256;}.cls-4,.cls-6{fill:none;stroke-width:6.5px;}.cls-4{stroke:#000;}.cls-5{fill:url(#New_Gradient_Swatch);}.cls-6{stroke:#4a4a4a;}.cls-7{fill:url(#New_Gradient_Swatch-2);}.cls-8{fill:url(#New_Gradient_Swatch-3);}.cls-9{fill:url(#New_Gradient_Swatch-4);}.cls-10{fill:url(#New_Gradient_Swatch-5);}.cls-11{fill:url(#New_Gradient_Swatch-6);}.cls-12{fill:url(#New_Gradient_Swatch-7);}.cls-13{fill:url(#New_Gradient_Swatch-8);}</style><linearGradient id="New_Gradient_Swatch" x1="516.61" y1="28.38" x2="516.61" y2="137.31" gradientTransform="matrix(0.99, -0.15, 0.15, 0.99, 117.79, 80.7)" gradientUnits="userSpaceOnUse"><stop offset="0" stop-color="#ffe180"/><stop offset="1" stop-color="#ff7f00"/></linearGradient><linearGradient id="New_Gradient_Swatch-2" x1="595.6" y1="26.07" x2="595.6" y2="134.56" gradientTransform="translate(-23.63 -16.85) rotate(1.78)" xlink:href="#New_Gradient_Swatch"/><linearGradient id="New_Gradient_Swatch-3" x1="461.39" y1="31.93" x2="461.39" y2="140.12" gradientTransform="translate(31.39 18.03) rotate(-2.34)" xlink:href="#New_Gradient_Swatch"/><linearGradient id="New_Gradient_Swatch-4" x1="550.81" y1="16.04" x2="550.81" y2="124.82" gradientTransform="translate(-112.61 -69.69) rotate(8.99)" xlink:href="#New_Gradient_Swatch"/><linearGradient id="New_Gradient_Swatch-5" x1="327.2" y1="29.1" x2="327.2" y2="137.72" gradientTransform="translate(26.89 10.6) rotate(-2.02)" xlink:href="#New_Gradient_Swatch"/><linearGradient id="New_Gradient_Swatch-6" x1="341.12" y1="21.23" x2="341.12" y2="129.86" gradientTransform="matrix(1, 0.08, -0.08, 1, -63.35, -21.33)" xlink:href="#New_Gradient_Swatch"/><linearGradient id="New_Gradient_Swatch-7" x1="182.23" y1="28.93" x2="182.23" y2="137.26" gradientTransform="matrix(1, 0, 0, 1, 0, 0)" xlink:href="#New_Gradient_Swatch"/><linearGradient id="New_Gradient_Swatch-8" x1="2.16" y1="26.83" x2="2.16" y2="135.47" gradientTransform="translate(70.49 2.5) rotate(-5.36)" xlink:href="#New_Gradient_Swatch"/></defs><title>articles</title><g class="cls-1"><g id="Layer_1_copy" data-name="Layer 1 copy"><g class="cls-2"><text class="cls-3" transform="matrix(0.99, -0.15, 0.15, 0.99, 596.56, 152.88)">S</text><path d="M674.13,82.56,650.19,71.81l-4.45,7.76,43.33,22.77L675.48,140.9l-46.41,7L592.82,127l10.49-25.67,30.27,11.58,3.22-7.13L592.24,87.59l32.25-49.19,34.84-5.22,30,23.59Z"/><text class="cls-4" transform="matrix(0.99, -0.15, 0.15, 0.99, 598.29, 155.05)">S</text><text class="cls-4" transform="matrix(0.99, -0.15, 0.15, 0.99, 596.56, 152.88)">S</text></g><text class="cls-3" transform="matrix(0.99, -0.15, 0.15, 0.99, 596.56, 147.88)">S</text><path class="cls-5" d="M674.13,77.56,650.19,66.81l-4.45,7.76,43.33,22.77L675.48,135.9l-46.41,7L592.82,122l10.49-25.67,30.27,11.58,3.22-7.13L592.24,82.59l32.25-49.19,34.84-5.22,30,23.59Z"/><g class="cls-2"><text class="cls-4" transform="matrix(0.99, -0.15, 0.15, 0.99, 598.29, 150.05)">S</text></g><text class="cls-6" transform="matrix(0.99, -0.15, 0.15, 0.99, 596.56, 147.88)">S</text><g class="cls-2"><text class="cls-3" transform="translate(523.28 140.17) rotate(1.77)">E</text><path d="M606.15,33.77l-6.93,30.06-35.38,4.32-.67,7.44,31.05,3.3L592,102.08,564.2,103.7l2.24,8L600.19,113l11.52,29.46L531.19,140l-5.73-70.1,9.09-38.33Z"/><text class="cls-4" transform="translate(525.02 142.34) rotate(1.77)">E</text><text class="cls-4" transform="translate(523.28 140.17) rotate(1.77)">E</text></g><text class="cls-3" transform="translate(523.28 135.17) rotate(1.77)">E</text><path class="cls-7" d="M606.15,28.77l-6.93,30.06-35.38,4.32-.67,7.44,31.05,3.3L592,97.08,564.2,98.7l2.24,8L600.19,108l11.52,29.46L531.19,135l-5.73-70.1,9.09-38.33Z"/><g class="cls-2"><text class="cls-4" transform="translate(525.02 137.34) rotate(1.77)">E</text></g><text class="cls-6" transform="translate(523.28 135.17) rotate(1.77)">E</text><g class="cls-2"><text class="cls-3" transform="matrix(1, -0.04, 0.04, 1, 455.54, 147.23)">L</text><path d="M490.3,106.45l44.63-7.24,5.47,33.58-80.83,13L451.06,37.82l40.8,3Z"/><text class="cls-4" transform="matrix(1, -0.04, 0.04, 1, 457.27, 149.4)">L</text><text class="cls-4" transform="matrix(1, -0.04, 0.04, 1, 455.54, 147.23)">L</text></g><text class="cls-3" transform="matrix(1, -0.04, 0.04, 1, 455.54, 142.23)">L</text><path class="cls-8" d="M490.3,101.45l44.63-7.24,5.47,33.58-80.83,13L451.06,32.82l40.8,3Z"/><g class="cls-2"><text class="cls-4" transform="matrix(1, -0.04, 0.04, 1, 457.27, 144.4)">L</text></g><text class="cls-6" transform="matrix(1, -0.04, 0.04, 1, 455.54, 142.23)">L</text><g class="cls-2"><text class="cls-3" transform="translate(369.9 137.99) rotate(8.99)">C</text><path d="M467.78,46l-7.64,38L436.06,67.78l-24.34,7-4.89,24.39,17.78,16.72,31.74-10.67L459.8,147,401.38,143l-24.25-29.15-3.47-32.37,18.27-31.3,36.4-13Z"/><text class="cls-4" transform="translate(371.63 140.15) rotate(8.99)">C</text><text class="cls-4" transform="translate(369.9 137.99) rotate(8.99)">C</text></g><text class="cls-3" transform="translate(369.9 132.99) rotate(8.99)">C</text><path class="cls-9" d="M467.78,41l-7.64,38L436.06,62.78l-24.34,7-4.89,24.39,17.78,16.72,31.74-10.67L459.8,142,401.38,138l-24.25-29.15-3.47-32.37,18.27-31.3,36.4-13Z"/><g class="cls-2"><text class="cls-4" transform="translate(371.63 135.15) rotate(8.99)">C</text></g><text class="cls-6" transform="translate(369.9 132.99) rotate(8.99)">C</text><g class="cls-2"><text class="cls-3" transform="translate(332.93 143.77) rotate(-2.02)">I</text><path d="M358.13,33,383.7,135.69l-46.28,6.76L329.84,35.77Z"/><text class="cls-4" transform="translate(334.66 145.94) rotate(-2.02)">I</text><text class="cls-4" transform="translate(332.93 143.77) rotate(-2.02)">I</text></g><text class="cls-3" transform="translate(332.93 138.77) rotate(-2.02)">I</text><path class="cls-10" d="M358.13,28,383.7,130.69l-46.28,6.76L329.84,30.77Z"/><g class="cls-2"><text class="cls-4" transform="translate(334.66 140.94) rotate(-2.02)">I</text></g><text class="cls-6" transform="translate(332.93 138.77) rotate(-2.02)">I</text><g class="cls-2"><text class="cls-3" transform="matrix(1, 0.08, -0.08, 1, 211.71, 137.29)">T</text><path d="M328.41,40.26,324.68,84l-35.91-9.07L293,144.36l-52.15-4.44L254.54,72l-36.84-5,3.21-37.73Z"/><text class="cls-4" transform="matrix(1, 0.08, -0.08, 1, 213.44, 139.45)">T</text><text class="cls-4" transform="matrix(1, 0.08, -0.08, 1, 211.71, 137.29)">T</text></g><text class="cls-3" transform="matrix(1, 0.08, -0.08, 1, 211.71, 132.29)">T</text><path class="cls-11" d="M328.41,35.26,324.68,79l-35.91-9.07L293,139.36l-52.15-4.44L254.54,67l-36.84-5,3.21-37.73Z"/><g class="cls-2"><text class="cls-4" transform="matrix(1, 0.08, -0.08, 1, 213.44, 134.45)">T</text></g><text class="cls-6" transform="matrix(1, 0.08, -0.08, 1, 211.71, 132.29)">T</text><g class="cls-2"><text class="cls-3" transform="translate(131.21 141.97)">R</text><path d="M218.93,53.66l2.49,34.06-15.2,17,27,23.83-31.73,13.74L168.34,113.9l5,28.22H139.69L131.21,38.61l60.67-4.68ZM167.47,85l8.92,1.17,8.92-12.87-17-9.06Z"/><text class="cls-4" transform="translate(132.94 144.14)">R</text><text class="cls-4" transform="translate(131.21 141.97)">R</text></g><text class="cls-3" transform="translate(131.21 136.97)">R</text><path class="cls-12" d="M218.93,48.66l2.49,34.06-15.2,17,27,23.83-31.73,13.74L168.34,108.9l5,28.22H139.69L131.21,33.61l60.67-4.68ZM167.47,80l8.92,1.17,8.92-12.87-17-9.06Z"/><g class="cls-2"><text class="cls-4" transform="translate(132.94 139.14)">R</text></g><text class="cls-6" transform="translate(131.21 136.97)">R</text><g class="cls-2"><text class="cls-3" transform="translate(40.5 146.07) rotate(-5.36)">A</text><path d="M151.15,128.06l-43.3,11.11-5.91-25.44-35.45,2.45-5.42,28.26L18,140.84,66.9,37.72l28.84-5.64ZM73.05,87.66l22.33-1.51-6.5-14.52-11.25.61Z"/><text class="cls-4" transform="translate(42.23 148.24) rotate(-5.36)">A</text><text class="cls-4" transform="translate(40.5 146.07) rotate(-5.36)">A</text></g><text class="cls-3" transform="translate(40.5 141.07) rotate(-5.36)">A</text><path class="cls-13" d="M151.15,123.06l-43.3,11.11-5.91-25.44-35.45,2.45-5.42,28.26L18,135.84,66.9,32.72l28.84-5.64ZM73.05,82.66l22.33-1.51-6.5-14.52-11.25.61Z"/><g class="cls-2"><text class="cls-4" transform="translate(42.23 143.24) rotate(-5.36)">A</text></g><text class="cls-6" transform="translate(40.5 141.07) rotate(-5.36)">A</text></g></g></svg>