<svg xmlns="http://www.w3.org/2000/svg" xmlns:xlink="http://www.w3.org/1999/xlink" viewBox="0 0 730.85 175.48"><defs><style>.cls-1{isolation:isolate;}.cls-2{mix-blend-mode:multiply;}.cls-3,.cls-4,.cls-6{font-size:146.2px;font-family:SuperMarioGalaxy, Super Mario 256;}.cls-4,.cls-6{fill:none;stroke-width:6.5px;}.cls-4{stroke:#000;}.cls-5{fill:url(#New_Gradient_Swatch);}.cls-6{stroke:#4a4a4a;}.cls-7{fill:url(#New_Gradient_Swatch-2);}.cls-8{fill:url(#New_Gradient_Swatch-3);}.cls-9{fill:url(#New_Gradient_Swatch-4);}.cls-10{fill:url(#New_Gradient_Swatch-5);}.cls-11{fill:url(#New_Gradient_Swatch-6);}.cls-12{fill:url(#New_Gradient_Swatch-7);}.cls-13{fill:url(#New_Gradient_Swatch-8);}</style><linearGradient id="New_Gradient_Swatch" x1="628.01" y1="37.33" x2="628.01" y2="146.26" gradientTransform="matrix(0.99, -0.15, 0.15, 0.99, 24.49, 87.15)" gradientUnits="userSpaceOnUse"><stop offset="0" stop-color="#ffe180"/><stop offset="1" stop-color="#ff7f00"/></linearGradient><linearGradient id="New_Gradient_Swatch-2" x1="574.04" y1="25.84" x2="574.04" y2="134.47" gradientTransform="translate(-4.14 -16.43) rotate(1.78)" xlink:href="#New_Gradient_Swatch"/><linearGradient id="New_Gradient_Swatch-3" x1="475.19" y1="31.66" x2="475.19" y2="140.43" gradientTransform="translate(5.66 18.39) rotate(-2.34)" xlink:href="#New_Gradient_Swatch"/><linearGradient id="New_Gradient_Swatch-4" x1="442.34" y1="23.69" x2="442.34" y2="132.18" gradientTransform="translate(-14.43 -61.4) rotate(8.99)" xlink:href="#New_Gradient_Swatch"/><linearGradient id="New_Gradient_Swatch-5" x1="319.83" y1="27.6" x2="319.83" y2="136.38" gradientTransform="translate(4.69 10.85) rotate(-2.02)" xlink:href="#New_Gradient_Swatch"/><linearGradient id="New_Gradient_Swatch-6" x1="253.62" y1="24.7" x2="253.62" y2="132.88" gradientTransform="matrix(1, 0.08, -0.08, 1, -9.97, -18.77)" xlink:href="#New_Gradient_Swatch"/><linearGradient id="New_Gradient_Swatch-7" x1="150.39" y1="27.71" x2="150.39" y2="136.04" gradientTransform="matrix(1, 0, 0, 1, 0, 0)" xlink:href="#New_Gradient_Swatch"/><linearGradient id="New_Gradient_Swatch-8" x1="40.5" y1="26.79" x2="40.5" y2="135.57" gradientTransform="translate(11.74 4.93) rotate(-5.36)" xlink:href="#New_Gradient_Swatch"/></defs><title>projects</title><g class="cls-1"><g id="Layer_1_copy" data-name="Layer 1 copy"><g class="cls-2"><text class="cls-3" transform="matrix(0.99, -0.15, 0.15, 0.99, 614.76, 151.66)">S</text><path d="M692.33,81.34,668.39,70.59l-4.45,7.76,43.33,22.77-13.59,38.55-46.41,7L611,125.76l10.49-25.67,30.27,11.58,3.22-7.13L610.44,86.37l32.24-49.19L677.53,32l30,23.59Z"/><text class="cls-4" transform="matrix(0.99, -0.15, 0.15, 0.99, 616.49, 153.83)">S</text><text class="cls-4" transform="matrix(0.99, -0.15, 0.15, 0.99, 614.76, 151.66)">S</text></g><text class="cls-3" transform="matrix(0.99, -0.15, 0.15, 0.99, 614.76, 146.66)">S</text><path class="cls-5" d="M692.33,76.34,668.39,65.59l-4.45,7.76,43.33,22.77-13.59,38.55-46.41,7L611,120.76l10.49-25.67,30.27,11.58L655,99.53,610.44,81.37l32.24-49.19L677.53,27l30,23.59Z"/><g class="cls-2"><text class="cls-4" transform="matrix(0.99, -0.15, 0.15, 0.99, 616.49, 148.83)">S</text></g><text class="cls-6" transform="matrix(0.99, -0.15, 0.15, 0.99, 614.76, 146.66)">S</text><g class="cls-2"><text class="cls-3" transform="translate(511.46 138.95) rotate(1.77)">T</text><path d="M622.75,35.77l-1.36,43.84L585,72.49l8,69.14L540.68,140l10-68.58-37.06-3.05,1.17-37.85Z"/><text class="cls-4" transform="translate(513.19 141.12) rotate(1.77)">T</text><text class="cls-4" transform="translate(511.46 138.95) rotate(1.77)">T</text></g><text class="cls-3" transform="translate(511.46 133.95) rotate(1.77)">T</text><path class="cls-7" d="M622.75,30.77l-1.36,43.84L585,67.49l8,69.14L540.68,135l10-68.58-37.06-3.05,1.17-37.85Z"/><g class="cls-2"><text class="cls-4" transform="translate(513.19 136.12) rotate(1.77)">T</text></g><text class="cls-6" transform="translate(511.46 133.95) rotate(1.77)">T</text><g class="cls-2"><text class="cls-3" transform="matrix(1, -0.04, 0.04, 1, 443.71, 146.01)">C</text><path d="M521.62,36.59l0,38.78L494.8,64.17l-22.5,11.6v24.88L493,113.56l29-16.7,11.6,40.35-58.08,7.5-29.51-23.81-9.76-31.06,11.77-34.28,33.13-19.94Z"/><text class="cls-4" transform="matrix(1, -0.04, 0.04, 1, 445.45, 148.18)">C</text><text class="cls-4" transform="matrix(1, -0.04, 0.04, 1, 443.71, 146.01)">C</text></g><text class="cls-3" transform="matrix(1, -0.04, 0.04, 1, 443.71, 141.01)">C</text><path class="cls-8" d="M521.62,31.59l0,38.78L494.8,59.17l-22.5,11.6V95.65L493,108.56l29-16.7,11.6,40.35-58.08,7.5-29.51-23.81-9.76-31.06,11.77-34.28,33.13-19.94Z"/><g class="cls-2"><text class="cls-4" transform="matrix(1, -0.04, 0.04, 1, 445.45, 143.18)">C</text></g><text class="cls-6" transform="matrix(1, -0.04, 0.04, 1, 443.71, 141.01)">C</text><g class="cls-2"><text class="cls-3" transform="translate(358.07 136.77) rotate(8.99)">E</text><path d="M453.64,41.61,443,70.57l-35.65-.16-1.6,7.3,30.39,7.17-5.08,22.73-27.83-1.88,1.22,8.19,33.31,5.56,7.73,30.68-79.57-12.58,3.12-70.26,13.83-36.89Z"/><text class="cls-4" transform="translate(359.8 138.93) rotate(8.99)">E</text><text class="cls-4" transform="translate(358.07 136.77) rotate(8.99)">E</text></g><text class="cls-3" transform="translate(358.07 131.77) rotate(8.99)">E</text><path class="cls-9" d="M453.64,36.61,443,65.57l-35.65-.16-1.6,7.3,30.39,7.17-5.08,22.73-27.83-1.88,1.22,8.19,33.31,5.56,7.73,30.68-79.57-12.58,3.12-70.26,13.83-36.89Z"/><g class="cls-2"><text class="cls-4" transform="translate(359.8 133.93) rotate(8.99)">E</text></g><text class="cls-6" transform="translate(358.07 131.77) rotate(8.99)">E</text><g class="cls-2"><text class="cls-3" transform="translate(281.07 142.55) rotate(-2.02)">J</text><path d="M309.23,32.72l64.25.66,1,28.64-29,3.8,12.6,50.32-14.38,19.53-28.33,5.68-31.71,1.12-.11-32.18,34.69-3.71L312.93,67l-34.58-1.56-1.09-30.83Z"/><text class="cls-4" transform="translate(282.8 144.72) rotate(-2.02)">J</text><text class="cls-4" transform="translate(281.07 142.55) rotate(-2.02)">J</text></g><text class="cls-3" transform="translate(281.07 137.55) rotate(-2.02)">J</text><path class="cls-10" d="M309.23,27.72l64.25.66,1,28.64-29,3.8,12.6,50.32-14.38,19.53-28.33,5.68-31.71,1.12-.11-32.18,34.69-3.71L312.93,62l-34.58-1.56-1.09-30.83Z"/><g class="cls-2"><text class="cls-4" transform="translate(282.8 139.72) rotate(-2.02)">J</text></g><text class="cls-6" transform="translate(281.07 137.55) rotate(-2.02)">J</text><g class="cls-2"><text class="cls-3" transform="matrix(1, 0.08, -0.08, 1, 179.87, 136.07)">O</text><path d="M293.4,78l-13.46,51.24-58.82,10.1L178.68,94.88l10.73-45,36.08-18.79L265,35.77ZM222,85.81l12.09,9.69,14-3.8.65-16.23-17.86-5.63Z"/><text class="cls-4" transform="matrix(1, 0.08, -0.08, 1, 181.6, 138.24)">O</text><text class="cls-4" transform="matrix(1, 0.08, -0.08, 1, 179.87, 136.07)">O</text></g><text class="cls-3" transform="matrix(1, 0.08, -0.08, 1, 179.87, 131.07)">O</text><path class="cls-11" d="M293.4,73l-13.46,51.24-58.82,10.1L178.68,89.88l10.73-45,36.08-18.79L265,30.77ZM222,80.81l12.09,9.69,14-3.8.65-16.23-17.86-5.63Z"/><g class="cls-2"><text class="cls-4" transform="matrix(1, 0.08, -0.08, 1, 181.6, 133.24)">O</text></g><text class="cls-6" transform="matrix(1, 0.08, -0.08, 1, 179.87, 131.07)">O</text><g class="cls-2"><text class="cls-3" transform="translate(99.37 140.75)">R</text><path d="M187.09,52.45l2.49,34.06-15.21,17,27,23.83L169.69,141,136.5,112.68l5,28.22H107.85L99.37,37.39,160,32.71ZM135.63,83.73l8.92,1.17L153.46,72,136.5,63Z"/><text class="cls-4" transform="translate(101.1 142.92)">R</text><text class="cls-4" transform="translate(99.37 140.75)">R</text></g><text class="cls-3" transform="translate(99.37 135.75)">R</text><path class="cls-12" d="M187.09,47.45l2.49,34.06-15.21,17,27,23.83L169.69,136,136.5,107.68l5,28.22H107.85L99.37,32.39,160,27.71ZM135.63,78.73l8.92,1.17L153.46,67,136.5,58Z"/><g class="cls-2"><text class="cls-4" transform="translate(101.1 137.92)">R</text></g><text class="cls-6" transform="translate(99.37 135.75)">R</text><g class="cls-2"><text class="cls-3" transform="translate(18.67 144.86) rotate(-5.36)">P</text><path d="M100.17,46.31l6.08,42.9L82.69,116.68l-32,5.06,1.93,20.52-33.92,3.18L13.95,36.63l59-5.53Zm-48,38,9.73.41L72.8,69.15,51.56,66.59Z"/><text class="cls-4" transform="translate(20.4 147.02) rotate(-5.36)">P</text><text class="cls-4" transform="translate(18.67 144.86) rotate(-5.36)">P</text></g><text class="cls-3" transform="translate(18.67 139.86) rotate(-5.36)">P</text><path class="cls-13" d="M100.17,41.31l6.08,42.9L82.69,111.68l-32,5.06,1.93,20.52-33.92,3.18L13.95,31.63l59-5.53Zm-48,38,9.73.41L72.8,64.15,51.56,61.59Z"/><g class="cls-2"><text class="cls-4" transform="translate(20.4 142.02) rotate(-5.36)">P</text></g><text class="cls-6" transform="translate(18.67 139.86) rotate(-5.36)">P</text></g></g></svg>