<svg xmlns="http://www.w3.org/2000/svg" xmlns:xlink="http://www.w3.org/1999/xlink" viewBox="0 0 490.66 176.75"><defs><style>.cls-1{isolation:isolate;}.cls-2{mix-blend-mode:multiply;}.cls-3,.cls-4,.cls-6{font-size:146.2px;font-family:SuperMarioGalaxy, Super Mario 256;}.cls-4,.cls-6{fill:none;stroke-width:6.5px;}.cls-4{stroke:#000;}.cls-5{fill:url(#New_Gradient_Swatch);}.cls-6{stroke:#4a4a4a;}.cls-7{fill:url(#New_Gradient_Swatch-2);}.cls-8{fill:url(#New_Gradient_Swatch-3);}.cls-9{fill:url(#New_Gradient_Swatch-4);}.cls-10{fill:url(#New_Gradient_Swatch-5);}</style><linearGradient id="New_Gradient_Swatch" x1="341.93" y1="0.87" x2="341.93" y2="109.8" gradientTransform="matrix(0.99, -0.15, 0.15, 0.99, 72.62, 82.04)" gradientUnits="userSpaceOnUse"><stop offset="0" stop-color="#ffe180"/><stop offset="1" stop-color="#ff7f00"/></linearGradient><linearGradient id="New_Gradient_Swatch-2" x1="322.89" y1="28.99" x2="322.89" y2="137.18" gradientTransform="translate(16.16 10.3) rotate(-2.02)" xlink:href="#New_Gradient_Swatch"/><linearGradient id="New_Gradient_Swatch-3" x1="301.25" y1="22.23" x2="301.25" y2="130.42" gradientTransform="matrix(1, 0.08, -0.08, 1, -37.62, -19.08)" xlink:href="#New_Gradient_Swatch"/><linearGradient id="New_Gradient_Swatch-4" x1="161.13" y1="28.54" x2="161.13" y2="136.73" gradientTransform="matrix(1, 0, 0, 1, 0, 0)" xlink:href="#New_Gradient_Swatch"/><linearGradient id="New_Gradient_Swatch-5" x1="17.78" y1="27.29" x2="17.78" y2="135.92" gradientTransform="translate(42.07 2.56) rotate(-5.36)" xlink:href="#New_Gradient_Swatch"/></defs><title>tools</title><g class="cls-1"><g id="Layer_1_copy" data-name="Layer 1 copy"><g class="cls-2"><text class="cls-3" transform="matrix(0.99, -0.15, 0.15, 0.99, 374.57, 152.93)">S</text><path d="M452.14,82.61,428.2,71.86l-4.45,7.76,43.33,22.77-13.59,38.55-46.41,7L370.83,127l10.49-25.67,30.27,11.58,3.22-7.13L370.25,87.64,402.5,38.46l34.84-5.22,30,23.59Z"/><text class="cls-4" transform="matrix(0.99, -0.15, 0.15, 0.99, 376.3, 155.1)">S</text><text class="cls-4" transform="matrix(0.99, -0.15, 0.15, 0.99, 374.57, 152.93)">S</text></g><text class="cls-3" transform="matrix(0.99, -0.15, 0.15, 0.99, 374.57, 147.93)">S</text><path class="cls-5" d="M452.14,77.61,428.2,66.86l-4.45,7.76L467.08,97.4l-13.59,38.55-46.41,7L370.83,122l10.49-25.67,30.27,11.58,3.22-7.13L370.25,82.64,402.5,33.46l34.84-5.22,30,23.59Z"/><g class="cls-2"><text class="cls-4" transform="matrix(0.99, -0.15, 0.15, 0.99, 376.3, 150.1)">S</text></g><text class="cls-6" transform="matrix(0.99, -0.15, 0.15, 0.99, 374.57, 147.93)">S</text><g class="cls-2"><text class="cls-3" transform="translate(301.09 143.82) rotate(-2.02)">L</text><path d="M336.08,103.23l44.67-7L386,129.85l-80.9,12.51-7.91-108L338,37.63Z"/><text class="cls-4" transform="translate(302.82 145.99) rotate(-2.02)">L</text><text class="cls-4" transform="translate(301.09 143.82) rotate(-2.02)">L</text></g><text class="cls-3" transform="translate(301.09 138.82) rotate(-2.02)">L</text><path class="cls-7" d="M336.08,98.23l44.67-7L386,124.85l-80.9,12.51-7.91-108L338,32.63Z"/><g class="cls-2"><text class="cls-4" transform="translate(302.82 140.99) rotate(-2.02)">L</text></g><text class="cls-6" transform="translate(301.09 138.82) rotate(-2.02)">L</text><g class="cls-2"><text class="cls-3" transform="matrix(1, 0.08, -0.08, 1, 199.88, 137.34)">O</text><path d="M313.41,79.22,300,130.46l-58.82,10.1L198.7,96.15l10.73-45,36.08-18.79L285,37ZM242,87.08l12.09,9.69,14-3.8.65-16.23L250.86,71.1Z"/><text class="cls-4" transform="matrix(1, 0.08, -0.08, 1, 201.62, 139.5)">O</text><text class="cls-4" transform="matrix(1, 0.08, -0.08, 1, 199.88, 137.34)">O</text></g><text class="cls-3" transform="matrix(1, 0.08, -0.08, 1, 199.88, 132.34)">O</text><path class="cls-8" d="M313.41,74.22,300,125.46l-58.82,10.1L198.7,91.15l10.73-45,36.08-18.79L285,32ZM242,82.08l12.09,9.69,14-3.8.65-16.23L250.86,66.1Z"/><g class="cls-2"><text class="cls-4" transform="matrix(1, 0.08, -0.08, 1, 201.62, 134.5)">O</text></g><text class="cls-6" transform="matrix(1, 0.08, -0.08, 1, 199.88, 132.34)">O</text><g class="cls-2"><text class="cls-3" transform="translate(109.38 142.02)">O</text><path d="M217.57,74.48l-9.06,52.19-57.75,15.06L104.7,101.08l6.87-45.76,34.36-21.78,39.77,1.32ZM147.1,88.36,160,97l13.6-5-.73-16.23L154.55,71.7Z"/><text class="cls-4" transform="translate(111.11 144.19)">O</text><text class="cls-4" transform="translate(109.38 142.02)">O</text></g><text class="cls-3" transform="translate(109.38 137.02)">O</text><path class="cls-9" d="M217.57,69.48l-9.06,52.19-57.75,15.06L104.7,96.08l6.87-45.76,34.36-21.78,39.77,1.32ZM147.1,83.36,160,92l13.6-5-.73-16.23L154.55,66.7Z"/><g class="cls-2"><text class="cls-4" transform="translate(111.11 139.19)">O</text></g><text class="cls-6" transform="translate(109.38 137.02)">O</text><g class="cls-2"><text class="cls-3" transform="translate(18.67 146.13) rotate(-5.36)">T</text><path d="M116.28,29.92l4.1,43.67L83.43,71l16.48,67.62-52.11,4.89,1.43-69.3L12.07,75.82,8.53,38.12Z"/><text class="cls-4" transform="translate(20.4 148.29) rotate(-5.36)">T</text><text class="cls-4" transform="translate(18.67 146.13) rotate(-5.36)">T</text></g><text class="cls-3" transform="translate(18.67 141.13) rotate(-5.36)">T</text><path class="cls-10" d="M116.28,24.92l4.1,43.67L83.43,66l16.48,67.62-52.11,4.89,1.43-69.3L12.07,70.82,8.53,33.12Z"/><g class="cls-2"><text class="cls-4" transform="translate(20.4 143.29) rotate(-5.36)">T</text></g><text class="cls-6" transform="translate(18.67 141.13) rotate(-5.36)">T</text></g></g></svg>